HIERARCHY
ROOT Hips
{
	OFFSET 0.000000 71.427986 0.000000
	CHANNELS 6 Xposition Yposition Zposition Xrotation Yrotation Zrotation
	JOINT Pelvis
	{
		OFFSET 0.000000 0.000000 0.000000
		CHANNELS 3 Xrotation Yrotation Zrotation
		JOINT LeftUpLeg
		{
			OFFSET 6.797100 -2.508499 -1.318700
			CHANNELS 3 Xrotation Yrotation Zrotation
			JOINT LeftLeg
			{
				OFFSET 0.069008 -29.241863 0.690200
				CHANNELS 3 Xrotation Yrotation Zrotation
				JOINT LeftFoot
				{
					OFFSET -0.069008 -29.568123 -0.266800
					CHANNELS 3 Xrotation Yrotation Zrotation
					JOINT LeftToeBase
					{
						OFFSET 3.145500 -8.631000 16.059900
						CHANNELS 3 Xrotation Yrotation Zrotation
						End Site
						{
							OFFSET 0.000000 18.501587 0.000000
						}
					}
				}
			}
			JOINT Left_ShortSleeve
			{
				OFFSET 0.265923 -10.480953 1.153800
				CHANNELS 3 Xrotation Yrotation Zrotation
				End Site
				{
					OFFSET 1.725763 19.823879 0.000000
				}
			}
		}
		JOINT RightUpLeg
		{
			OFFSET -6.797100 -2.508499 -1.318700
			CHANNELS 3 Xrotation Yrotation Zrotation
			JOINT RightLeg
			{
				OFFSET -0.082453 -29.241932 0.688000
				CHANNELS 3 Xrotation Yrotation Zrotation
				JOINT RightFoot
				{
					OFFSET 0.082453 -29.568058 -0.264600
					CHANNELS 3 Xrotation Yrotation Zrotation
					JOINT RightToeBase
					{
						OFFSET -3.115300 -8.682800 16.113400
						CHANNELS 3 Xrotation Yrotation Zrotation
						End Site
						{
							OFFSET 0.000000 18.567114 0.000000
						}
					}
				}
			}
			JOINT Right_ShortSleeve
			{
				OFFSET -0.265923 -10.480953 1.153800
				CHANNELS 3 Xrotation Yrotation Zrotation
				End Site
				{
					OFFSET -1.725766 19.823910 0.000000
				}
			}
		}
	}
	JOINT Spine
	{
		OFFSET 0.000000 13.368103 0.470500
		CHANNELS 3 Xrotation Yrotation Zrotation
		JOINT Spine1
		{
			OFFSET 0.147000 13.837402 0.538800
			CHANNELS 3 Xrotation Yrotation Zrotation
			JOINT Spine2
			{
				OFFSET 0.168000 16.242897 -1.435500
				CHANNELS 3 Xrotation Yrotation Zrotation
				JOINT Neck
				{
					OFFSET 0.217200 18.631500 -1.679100
					CHANNELS 3 Xrotation Yrotation Zrotation
					JOINT Head
					{
						OFFSET 0.000000 6.599396 1.385900
						CHANNELS 3 Xrotation Yrotation Zrotation
						JOINT Hat
						{
							OFFSET -0.532200 27.220596 -10.096100
							CHANNELS 3 Xrotation Yrotation Zrotation
							End Site
							{
								OFFSET 0.000000 22.029861 0.000000
							}
						}
						JOINT HairD
						{
							OFFSET -10.777400 17.437393 -1.325900
							CHANNELS 3 Xrotation Yrotation Zrotation
							JOINT HairD1
							{
								OFFSET -3.290299 -11.051193 1.062200
								CHANNELS 3 Xrotation Yrotation Zrotation
								End Site
								{
									OFFSET 0.000000 11.579437 0.000000
								}
							}
						}
						JOINT HairB
						{
							OFFSET -10.777400 17.437393 1.467900
							CHANNELS 3 Xrotation Yrotation Zrotation
							JOINT HairB1
							{
								OFFSET -1.561200 -12.956299 3.590200
								CHANNELS 3 Xrotation Yrotation Zrotation
								End Site
								{
									OFFSET 0.000000 13.534866 0.000000
								}
							}
						}
						JOINT HairA
						{
							OFFSET 9.713100 17.437393 1.467900
							CHANNELS 3 Xrotation Yrotation Zrotation
							JOINT HairA1
							{
								OFFSET 1.561200 -12.956299 3.590200
								CHANNELS 3 Xrotation Yrotation Zrotation
								End Site
								{
									OFFSET 0.000000 13.534866 0.000000
								}
							}
						}
						JOINT HairC
						{
							OFFSET 9.713100 17.437393 -1.325900
							CHANNELS 3 Xrotation Yrotation Zrotation
							JOINT HairC1
							{
								OFFSET 3.290300 -11.051193 1.062200
								CHANNELS 3 Xrotation Yrotation Zrotation
								End Site
								{
									OFFSET 0.000000 11.579437 0.000000
								}
							}
						}
					}
				}
				JOINT LeftShoulder
				{
					OFFSET 5.101800 15.108002 -2.763700
					CHANNELS 3 Xrotation Yrotation Zrotation
					JOINT LeftArm
					{
						OFFSET 9.825497 2.506317 -1.597400
						CHANNELS 3 Xrotation Yrotation Zrotation
						JOINT LeftForeArm
						{
							OFFSET 21.966244 0.000000 0.000000
							CHANNELS 3 Xrotation Yrotation Zrotation
							JOINT LeftHand
							{
								OFFSET 33.879036 0.000000 0.000000
								CHANNELS 3 Xrotation Yrotation Zrotation
								JOINT LeftHandThumb1
								{
									OFFSET 6.715286 -2.359680 3.363841
									CHANNELS 3 Xrotation Yrotation Zrotation
									JOINT LeftHandThumb2
									{
										OFFSET 2.507072 -1.447464 1.447461
										CHANNELS 3 Xrotation Yrotation Zrotation
										JOINT LeftHandThumb3
										{
											OFFSET 2.898338 -1.673355 1.673357
											CHANNELS 3 Xrotation Yrotation Zrotation
											End Site
											{
												OFFSET -0.295959 3.727692 -0.131651
											}
										}
									}
								}
								JOINT LeftHandIndex1
								{
									OFFSET 14.190811 -0.254547 3.840278
									CHANNELS 3 Xrotation Yrotation Zrotation
									JOINT LeftHandIndex2
									{
										OFFSET 3.551727 0.000000 -0.000000
										CHANNELS 3 Xrotation Yrotation Zrotation
										JOINT LeftHandIndex3
										{
											OFFSET 2.894196 0.000000 0.000000
											CHANNELS 3 Xrotation Yrotation Zrotation
											End Site
											{
												OFFSET -1.000603 2.690872 0.366626
											}
										}
									}
								}
								JOINT LeftHandMiddle1
								{
									OFFSET 13.776489 0.000000 0.000000
									CHANNELS 3 Xrotation Yrotation Zrotation
									JOINT LeftHandMiddle2
									{
										OFFSET 3.438232 0.000000 0.000000
										CHANNELS 3 Xrotation Yrotation Zrotation
										JOINT LeftHandMiddle3
										{
											OFFSET 3.691551 0.000000 0.000000
											CHANNELS 3 Xrotation Yrotation Zrotation
											End Site
											{
												OFFSET -1.082298 3.499527 0.457670
											}
										}
									}
								}
								JOINT LeftHandRing1
								{
									OFFSET 13.966164 -0.268127 -3.067488
									CHANNELS 3 Xrotation Yrotation Zrotation
									JOINT LeftHandRing2
									{
										OFFSET 3.162567 0.000000 0.000000
										CHANNELS 3 Xrotation Yrotation Zrotation
										JOINT LeftHandRing3
										{
											OFFSET 3.324348 0.000000 0.000000
											CHANNELS 3 Xrotation Yrotation Zrotation
											End Site
											{
												OFFSET -0.861900 3.184998 0.405154
											}
										}
									}
								}
								JOINT LeftHandPinky1
								{
									OFFSET 13.131393 -0.168503 -5.746925
									CHANNELS 3 Xrotation Yrotation Zrotation
									JOINT LeftHandPinky2
									{
										OFFSET 2.849182 0.000000 0.000000
										CHANNELS 3 Xrotation Yrotation Zrotation
										JOINT LeftHandPinky3
										{
											OFFSET 2.805038 0.000000 0.000000
											CHANNELS 3 Xrotation Yrotation Zrotation
											End Site
											{
												OFFSET -0.882500 2.642609 0.325652
											}
										}
									}
								}
							}
							JOINT Left_Sleeve
							{
								OFFSET 6.592125 -0.646545 0.805568
								CHANNELS 3 Xrotation Yrotation Zrotation
								End Site
								{
									OFFSET -0.000179 20.275787 -0.000000
								}
							}
						}
					}
				}
				JOINT RightShoulder
				{
					OFFSET -5.731700 15.108002 -2.763700
					CHANNELS 3 Xrotation Yrotation Zrotation
					JOINT RightArm
					{
						OFFSET -9.825497 2.506317 -1.597400
						CHANNELS 3 Xrotation Yrotation Zrotation
						JOINT RightForeArm
						{
							OFFSET -21.966242 0.000000 0.000000
							CHANNELS 3 Xrotation Yrotation Zrotation
							JOINT RightHand
							{
								OFFSET -33.879032 0.000000 0.000000
								CHANNELS 3 Xrotation Yrotation Zrotation
								JOINT RightHandThumb1
								{
									OFFSET -6.715286 -2.359680 3.363841
									CHANNELS 3 Xrotation Yrotation Zrotation
									JOINT RightHandThumb2
									{
										OFFSET -2.507072 -1.447464 1.447461
										CHANNELS 3 Xrotation Yrotation Zrotation
										JOINT RightHandThumb3
										{
											OFFSET -2.898338 -1.673355 1.673357
											CHANNELS 3 Xrotation Yrotation Zrotation
											End Site
											{
												OFFSET 0.295959 3.727692 -0.131651
											}
										}
									}
								}
								JOINT RightHandIndex1
								{
									OFFSET -14.190811 -0.254547 3.840278
									CHANNELS 3 Xrotation Yrotation Zrotation
									JOINT RightHandIndex2
									{
										OFFSET -3.551727 0.000000 -0.000000
										CHANNELS 3 Xrotation Yrotation Zrotation
										JOINT RightHandIndex3
										{
											OFFSET -2.894196 0.000000 0.000000
											CHANNELS 3 Xrotation Yrotation Zrotation
											End Site
											{
												OFFSET 1.000603 2.690872 0.366626
											}
										}
									}
								}
								JOINT RightHandMiddle1
								{
									OFFSET -13.776489 0.000000 0.000000
									CHANNELS 3 Xrotation Yrotation Zrotation
									JOINT RightHandMiddle2
									{
										OFFSET -3.438232 0.000000 0.000000
										CHANNELS 3 Xrotation Yrotation Zrotation
										JOINT RightHandMiddle3
										{
											OFFSET -3.691551 0.000000 0.000000
											CHANNELS 3 Xrotation Yrotation Zrotation
											End Site
											{
												OFFSET 1.082298 3.499527 0.457670
											}
										}
									}
								}
								JOINT RightHandRing1
								{
									OFFSET -13.966164 -0.268127 -3.067488
									CHANNELS 3 Xrotation Yrotation Zrotation
									JOINT RightHandRing2
									{
										OFFSET -3.162567 0.000000 0.000000
										CHANNELS 3 Xrotation Yrotation Zrotation
										JOINT RightHandRing3
										{
											OFFSET -3.324348 0.000000 0.000000
											CHANNELS 3 Xrotation Yrotation Zrotation
											End Site
											{
												OFFSET 0.861900 3.184998 0.405154
											}
										}
									}
								}
								JOINT RightHandPinky1
								{
									OFFSET -13.131393 -0.168503 -5.746925
									CHANNELS 3 Xrotation Yrotation Zrotation
									JOINT RightHandPinky2
									{
										OFFSET -2.849182 0.000000 0.000000
										CHANNELS 3 Xrotation Yrotation Zrotation
										JOINT RightHandPinky3
										{
											OFFSET -2.805038 0.000000 0.000000
											CHANNELS 3 Xrotation Yrotation Zrotation
											End Site
											{
												OFFSET 0.882500 2.642609 0.325652
											}
										}
									}
								}
							}
							JOINT Right_Sleeve
							{
								OFFSET -6.592125 -0.646545 0.805568
								CHANNELS 3 Xrotation Yrotation Zrotation
								End Site
								{
									OFFSET 0.000179 20.275787 -0.000000
								}
							}
						}
					}
				}
				JOINT Bind_Right_JacketString
				{
					OFFSET -3.534800 11.969597 7.200700
					CHANNELS 3 Xrotation Yrotation Zrotation
					JOINT Bind_Right_JacketString1
					{
						OFFSET -0.319900 -6.102600 2.794100
						CHANNELS 3 Xrotation Yrotation Zrotation
						End Site
						{
							OFFSET 0.000000 6.719452 0.000000
						}
					}
				}
				JOINT Bind_Left_JacketString
				{
					OFFSET 2.904800 11.969597 7.200700
					CHANNELS 3 Xrotation Yrotation Zrotation
					JOINT Bind_Left_JacketString1
					{
						OFFSET 0.364800 -5.904503 3.186800
						CHANNELS 3 Xrotation Yrotation Zrotation
						End Site
						{
							OFFSET 0.000000 6.719513 0.000000
						}
					}
				}
				JOINT HairE
				{
					OFFSET 5.915200 17.612701 -11.592200
					CHANNELS 3 Xrotation Yrotation Zrotation
					JOINT HairE1
					{
						OFFSET 0.289200 -7.171898 -1.284500
						CHANNELS 3 Xrotation Yrotation Zrotation
						End Site
						{
							OFFSET 0.000000 7.291756 0.000000
						}
					}
				}
				JOINT HairF
				{
					OFFSET -0.864800 17.612701 -11.592200
					CHANNELS 3 Xrotation Yrotation Zrotation
					JOINT HairF1
					{
						OFFSET 0.000000 -14.087097 -2.127501
						CHANNELS 3 Xrotation Yrotation Zrotation
						End Site
						{
							OFFSET 0.000000 14.246841 0.000000
						}
					}
				}
				JOINT HairG
				{
					OFFSET -8.087700 17.612701 -11.592200
					CHANNELS 3 Xrotation Yrotation Zrotation
					JOINT HairG1
					{
						OFFSET -0.293600 -6.081398 -0.910100
						CHANNELS 3 Xrotation Yrotation Zrotation
						End Site
						{
							OFFSET 0.000000 6.156120 0.000000
						}
					}
				}
			}
		}
	}
	JOINT Pouch
	{
		OFFSET 0.000000 4.394501 10.847300
		CHANNELS 3 Xrotation Yrotation Zrotation
		End Site
		{
			OFFSET 0.000000 21.880577 0.000000
		}
	}
	JOINT Bag
	{
		OFFSET -13.229000 4.813004 -0.593300
		CHANNELS 3 Xrotation Yrotation Zrotation
		End Site
		{
			OFFSET 0.000000 21.880577 0.000000
		}
	}
	JOINT OccupyGuyFacialAnim_Joint
	{
		OFFSET 1.000000 -70.206398 -1.655000
		CHANNELS 3 Xrotation Yrotation Zrotation
		End Site
		{
			OFFSET 0.000000 21.880577 0.000000
		}
	}
}
MOTION
Frames: 4
Frame Time: 0.016667
2.278814 66.470848 -0.097758 -62.971475 -92.808645 -63.369710 -0.000000 -0.000000 -0.000000 -29.826193 35.534069 33.976137 28.713682 -8.792398 1.111484 -6.863914 6.061791 -15.741382 0.000000 -0.000003 -0.000000 0.000000 -0.000001 0.000001 -25.841483 -15.050935 -19.706074 13.823833 10.512809 -3.472375 2.598677 13.630883 18.147635 0.000000 0.000000 0.000000 0.000001 0.000000 -0.000000 5.383835 -2.323313 -8.066642 2.771441 -0.553950 -1.077813 2.777685 -0.510268 -1.087487 -12.273409 6.004531 4.761555 20.231311 76.958023 -25.708535 -0.000000 0.000001 -0.000000 -0.000000 0.000001 -0.000000 -0.000000 0.000001 -0.000000 -0.000000 0.000001 -0.000000 -0.000000 0.000001 -0.000000 -0.000000 0.000001 -0.000000 -0.000000 0.000001 -0.000000 -0.000000 0.000001 -0.000000 -0.000000 0.000001 -0.000000 5.516887 -2.188419 12.208350 -41.899365 5.599296 2.227375 0.045089 -12.980532 -0.289998 -49.394183 -3.550610 -0.088065 40.109941 -15.297175 -0.360469 5.639942 28.097744 11.338737 0.000001 0.000002 0.000000 6.882283 2.840036 -61.140500 8.247949 7.640023 -89.897898 0.000001 -0.000001 -0.000004 -2.345528 4.688859 -62.655265 8.754189 9.897071 -87.051266 0.000001 0.000002 -0.000001 -9.042489 10.045578 -60.766192 8.524030 9.508890 -66.892919 0.000000 0.000002 -0.000001 -17.946775 14.755017 -51.485928 8.868348 8.666989 -84.811989 0.000000 -0.000000 -0.000001 0.000001 -0.000001 -0.000000 -2.478561 1.878747 -16.638407 -51.925892 54.163779 47.616619 1.362547 130.520325 0.246832 -70.593338 -0.218324 -24.603892 0.277470 -1.521508 -1.570513 7.169039 -41.689634 -15.773502 -0.000001 0.000003 0.000001 6.412820 -12.738401 14.389583 9.941731 -7.465136 101.743242 -0.000003 -0.000002 -0.000002 2.653199 -11.302337 44.730926 9.916104 -9.880659 94.351209 -0.000001 -0.000001 0.000001 2.140159 -7.454445 61.765018 9.609231 -8.992507 89.388707 0.000001 -0.000000 -0.000000 -4.886654 -23.798143 68.396155 13.518291 -7.949266 112.864949 0.000003 0.000003 -0.000003 0.000000 0.000002 0.000000 -0.000000 0.000000 -0.000000 -0.000000 0.000000 -0.000001 -0.000000 0.000000 -0.000001 -0.000000 0.000000 -0.000001 -0.000000 0.000000 -0.000000 -0.000000 0.000000 -0.000000 -0.000000 0.000000 -0.000001 -0.000000 0.000000 -0.000001 -0.000000 0.000000 -0.000000 -0.000000 0.000000 -0.000000 -0.000000 -0.000000 -0.000000 -0.000000 -0.000000 -0.000000 -0.000000 -0.000000 -0.000000 
2.279034 66.472832 -0.097728 -62.954209 -92.803105 -63.348345 -0.000000 -0.000000 -0.000000 -29.808073 35.538711 33.959943 28.698030 -8.788916 1.119272 -6.855956 6.062282 -15.746269 -0.000000 0.000000 0.000000 0.000002 0.000003 0.000003 -25.826989 -15.050972 -19.711313 13.804290 10.511119 -3.464521 2.608203 13.630989 18.145559 -0.000000 -0.000000 -0.000000 -0.000002 0.000001 -0.000000 5.383791 -2.323352 -8.066541 2.771402 -0.556401 -1.077452 2.777600 -0.514365 -1.086866 -12.261162 5.997539 4.760196 20.271124 76.969996 -25.754813 0.000001 -0.000001 0.000000 0.000001 -0.000001 0.000000 0.000001 -0.000001 0.000000 0.000001 -0.000001 0.000000 0.000001 -0.000001 -0.000000 0.000001 -0.000001 0.000000 0.000001 -0.000001 -0.000000 0.000001 -0.000001 0.000000 0.000001 -0.000001 0.000000 5.518632 -2.184565 12.217440 -41.910201 5.611451 2.220999 0.057265 -13.133504 -0.286643 -49.443353 -3.460259 0.032230 40.109951 -15.297177 -0.360472 5.639940 28.097745 11.338736 0.000005 0.000002 0.000001 6.882280 2.840035 -61.140507 8.247949 7.640023 -89.897898 0.000002 0.000001 0.000002 -2.345525 4.688863 -62.655272 8.754185 9.897073 -87.051260 0.000003 0.000001 -0.000004 -9.042487 10.045578 -60.766192 8.524032 9.508888 -66.892919 -0.000000 0.000002 -0.000004 -17.946769 14.755017 -51.485928 8.868347 8.666989 -84.811982 -0.000000 -0.000001 0.000001 0.000002 0.000000 0.000000 -2.479250 1.875583 -16.638720 -51.759959 54.134454 47.334229 -0.786874 130.482691 1.826160 -72.076295 -0.111464 -24.458178 0.277474 -1.521508 -1.570513 7.169040 -41.689637 -15.773509 -0.000002 0.000000 0.000003 6.412823 -12.738403 14.389583 9.941732 -7.465136 101.743236 0.000000 0.000001 0.000001 2.653200 -11.302338 44.730929 9.916110 -9.880658 94.351202 -0.000000 -0.000001 -0.000003 2.140159 -7.454445 61.765018 9.609236 -8.992501 89.388701 -0.000000 -0.000001 0.000001 -4.886652 -23.798145 68.396155 13.518292 -7.949267 112.864949 0.000001 -0.000000 -0.000003 -0.000000 0.000002 -0.000000 0.000000 -0.000000 -0.000000 0.000000 0.000000 0.000000 0.000000 -0.000000 -0.000001 0.000000 -0.000000 -0.000001 0.000000 -0.000000 -0.000000 0.000000 0.000000 0.000000 0.000000 -0.000000 -0.000001 0.000000 -0.000000 -0.000001 0.000000 -0.000000 -0.000000 0.000000 0.000000 0.000000 -0.000000 -0.000000 -0.000000 -0.000000 -0.000000 -0.000000 -0.000000 -0.000000 -0.000000 
2.279307 66.475082 -0.097221 -62.973135 -92.796275 -63.363002 -0.000000 0.000000 -0.000000 -29.790253 35.543376 33.942734 28.682693 -8.787913 1.127194 -6.848327 6.062766 -15.749762 0.000000 0.000000 -0.000000 -0.000000 -0.000000 -0.000001 -25.809367 -15.051220 -19.717373 13.781132 10.506674 -3.456913 2.618919 13.631064 18.144823 -0.000000 0.000000 -0.000000 -0.000001 -0.000001 -0.000001 5.383778 -2.323550 -8.066523 2.771260 -0.563897 -1.076318 2.777366 -0.526639 -1.085017 -12.248468 5.976484 4.762425 20.362314 77.005841 -25.852959 0.000001 0.000000 0.000000 0.000001 0.000000 0.000000 0.000001 0.000000 0.000001 0.000001 0.000000 0.000000 0.000001 0.000001 -0.000000 0.000001 0.000000 0.000000 0.000001 0.000001 -0.000000 0.000001 0.000000 0.000000 0.000001 0.000000 0.000000 5.523681 -2.173151 12.243788 -41.919282 5.652327 2.202113 0.064101 -13.136974 -0.284918 -49.498572 -3.474577 0.031521 40.109944 -15.297172 -0.360471 5.639937 28.097744 11.338738 -0.000004 -0.000000 0.000000 6.882280 2.840034 -61.140500 8.247950 7.640024 -89.897898 0.000001 -0.000001 -0.000000 -2.345527 4.688861 -62.655265 8.754184 9.897070 -87.051260 -0.000000 0.000002 0.000001 -9.042490 10.045578 -60.766199 8.524032 9.508889 -66.892919 -0.000001 0.000001 -0.000003 -17.946769 14.755017 -51.485932 8.868346 8.666987 -84.811989 0.000000 -0.000002 0.000006 0.000002 0.000003 0.000001 -2.480390 1.866613 -16.643230 -51.815786 54.140263 47.365210 -0.772597 130.490149 1.814557 -72.098466 -0.115879 -24.465695 0.277476 -1.521508 -1.570511 7.169043 -41.689631 -15.773504 -0.000000 -0.000002 -0.000002 6.412826 -12.738403 14.389583 9.941733 -7.465136 101.743236 -0.000002 -0.000001 0.000000 2.653203 -11.302338 44.730929 9.916110 -9.880659 94.351202 0.000001 -0.000002 -0.000001 2.140161 -7.454445 61.765018 9.609233 -8.992502 89.388694 -0.000000 -0.000003 0.000000 -4.886652 -23.798145 68.396155 13.518293 -7.949268 112.864956 0.000001 0.000000 0.000002 -0.000000 -0.000001 -0.000000 -0.000000 0.000000 -0.000000 -0.000001 -0.000000 -0.000000 -0.000000 0.000000 -0.000000 -0.000000 0.000000 -0.000000 -0.000000 0.000000 -0.000000 -0.000001 -0.000000 -0.000000 -0.000000 0.000000 -0.000000 -0.000000 0.000000 -0.000000 -0.000000 0.000000 -0.000000 -0.000001 -0.000000 -0.000000 -0.000000 0.000000 -0.000000 -0.000000 0.000000 -0.000000 -0.000000 0.000000 -0.000000 
2.279615 66.477478 -0.096190 -63.051594 -92.787471 -63.436475 -0.000000 0.000000 0.000000 -29.772719 35.549191 33.924703 28.666283 -8.790431 1.135012 -6.840061 6.062921 -15.751704 -0.000000 0.000002 -0.000000 -0.000001 -0.000003 -0.000002 -25.788358 -15.051432 -19.724314 13.753847 10.498873 -3.449615 2.630867 13.631112 18.145552 -0.000000 0.000000 -0.000000 0.000002 0.000001 -0.000000 5.387532 -2.322888 -8.061758 2.770429 -0.576457 -1.075720 2.777963 -0.546934 -1.081945 -12.234884 5.943182 4.765603 20.501217 77.063672 -25.999347 -0.000000 0.000000 -0.000000 -0.000000 0.000000 -0.000000 -0.000000 0.000000 0.000000 -0.000000 0.000000 -0.000000 0.000001 0.000000 -0.000000 -0.000000 0.000000 -0.000000 0.000001 0.000000 -0.000000 -0.000000 0.000000 -0.000000 -0.000000 0.000000 -0.000000 5.535946 -2.153905 12.285028 -41.932044 5.710412 2.170940 0.070655 -13.142523 -0.283219 -49.551878 -3.487780 0.031478 40.109941 -15.297175 -0.360472 5.639935 28.097744 11.338739 0.000001 0.000001 0.000000 6.882279 2.840035 -61.140500 8.247955 7.640020 -89.897898 0.000000 0.000002 -0.000002 -2.345528 4.688860 -62.655265 8.754184 9.897071 -87.051260 -0.000001 0.000002 0.000001 -9.042487 10.045577 -60.766199 8.524032 9.508886 -66.892919 -0.000001 0.000001 -0.000002 -17.946773 14.755017 -51.485935 8.868348 8.666988 -84.811989 0.000001 0.000001 -0.000002 -0.000001 0.000001 -0.000000 -2.482173 1.852241 -16.650714 -51.874867 54.138729 47.397251 -0.753154 130.499193 1.799612 -72.124107 -0.115254 -24.456490 0.277477 -1.521510 -1.570514 7.169045 -41.689634 -15.773506 -0.000004 0.000003 0.000001 6.412828 -12.738404 14.389583 9.941734 -7.465137 101.743236 -0.000001 -0.000003 -0.000002 2.653205 -11.302338 44.730926 9.916107 -9.880657 94.351202 -0.000002 -0.000002 0.000001 2.140163 -7.454445 61.765018 9.609233 -8.992500 89.388701 0.000002 0.000000 -0.000003 -4.886649 -23.798141 68.396155 13.518296 -7.949266 112.864949 -0.000000 0.000000 -0.000003 0.000000 0.000000 -0.000000 -0.000000 0.000000 0.000000 0.000001 -0.000000 0.000000 -0.000000 0.000000 0.000000 -0.000000 0.000000 0.000000 -0.000000 0.000000 0.000000 0.000001 -0.000000 0.000000 -0.000000 0.000000 0.000000 -0.000000 0.000000 0.000000 -0.000000 0.000000 0.000000 0.000001 -0.000000 0.000000 -0.000000 0.000000 0.000000 -0.000000 0.000000 0.000000 -0.000000 0.000000 0.000000 
